<svg id="carwash_icon" xmlns="http://www.w3.org/2000/svg" xmlns:xlink="http://www.w3.org/1999/xlink" width="89.701" height="77.097" viewBox="0 0 89.701 77.097">
  <defs>
    <clipPath id="clip-path">
      <rect id="Rectangle_3" data-name="Rectangle 3" width="89.701" height="77.097" fill="#02a0ac"/>
    </clipPath>
  </defs>
  <g id="Group_1" data-name="Group 1" clip-path="url(#clip-path)">
    <path id="Path_1" data-name="Path 1" d="M139.841,242.949v-7.63h4.29a11.327,11.327,0,0,1,8.209,3.545l3.852,4.085Zm-22.169-3.815a3.816,3.816,0,0,1,3.809-3.815h.739v7.63h-.739a3.816,3.816,0,0,1-3.809-3.815m19.555,3.815H124.834v-7.63h12.392Zm17.015-5.884a13.951,13.951,0,0,0-10.11-4.365H121.48a6.434,6.434,0,0,0,0,12.868h37.745a1.31,1.31,0,0,0,.951-2.209Z" transform="translate(-94.82 -191.703)" fill="#02a0ac"/>
    <path id="Path_2" data-name="Path 2" d="M85.467,147.684a4.7,4.7,0,0,0-2.906-1.448l-8.842-.984-14.91-12.858a8.238,8.238,0,0,0-5.378-2H23.484a8.177,8.177,0,0,0-6.388,3.038,33.938,33.938,0,0,0-6.828,14.844,30.087,30.087,0,0,0-.59,7.159v2.516l-.071,0a4.726,4.726,0,0,1-3.085-8.3,1.31,1.31,0,0,0-.495-2.248A4.725,4.725,0,0,1,8,138.187a1.308,1.308,0,0,0,1.456-.99,4.732,4.732,0,0,1,3.211-3.409,1.31,1.31,0,0,0,.705-1.984A7.109,7.109,0,1,1,25.6,124.6a1.306,1.306,0,0,0,1.7.6,7.093,7.093,0,0,1,5.51-.112,1.307,1.307,0,0,0,1.767-.975,7.1,7.1,0,0,1,14.086,1.327c0,.141-.006.3-.019.494a1.308,1.308,0,0,0,1.832,1.284,5.472,5.472,0,0,1,2.223-.468,5.546,5.546,0,0,1,5.149,3.548,1.307,1.307,0,0,0,2.049.545,5.448,5.448,0,0,1,3.489-1.246A5.525,5.525,0,0,1,68.9,135.12v.017a1.309,1.309,0,0,0,1.222,1.307,5.513,5.513,0,0,1,4.814,3.621,1.306,1.306,0,0,0,2.265.35,5.517,5.517,0,1,1,8.27,7.268M82.04,162.85H76.635a8.24,8.24,0,0,0-16.275,0H34.343a8.24,8.24,0,0,0-16.275,0H14.4a2.107,2.107,0,0,1-2.1-2.107v-5.352c0-.033,0-.067,0-.1a31.464,31.464,0,0,1,6.838-20.209,5.575,5.575,0,0,1,4.357-2.068H53.432a5.624,5.624,0,0,1,3.672,1.365L72.32,147.5a1.306,1.306,0,0,0,.709.309l9.244,1.028a2.1,2.1,0,0,1,1.871,2.094v1.327H81.572a1.31,1.31,0,0,0,0,2.619h2.572v5.865a2.107,2.107,0,0,1-2.1,2.107M68.5,169.8a5.637,5.637,0,1,1,5.628-5.637A5.639,5.639,0,0,1,68.5,169.8m-42.292,0a5.637,5.637,0,1,1,5.628-5.637,5.639,5.639,0,0,1-5.628,5.637m55.367-34.164a8.057,8.057,0,0,0-5.075,1.779,8.133,8.133,0,0,0-5.065-3.424,8.124,8.124,0,0,0-11.864-6.058,8.127,8.127,0,0,0-8.364-3.663,9.718,9.718,0,0,0-18.824-2.049,9.726,9.726,0,0,0-5.046.176,9.726,9.726,0,0,0-16.892,9.516,7.381,7.381,0,0,0-3.183,3.609,7.346,7.346,0,0,0-3.739,13.615,7.346,7.346,0,0,0,6.088,11.438l.071,0v.173A4.727,4.727,0,0,0,14.4,165.47h3.672a8.24,8.24,0,0,0,16.275,0H60.36a8.24,8.24,0,0,0,16.275,0H82.04a4.728,4.728,0,0,0,4.718-4.726v-9.811a4.757,4.757,0,0,0-.073-.827,8.145,8.145,0,0,0-5.113-14.472" transform="translate(0 -95.319)" fill="#02a0ac"/>
    <path id="Path_3" data-name="Path 3" d="M341.863,60.917a7.219,7.219,0,1,1-7.219-7.231,7.233,7.233,0,0,1,7.219,7.231m-17.053,0a9.834,9.834,0,1,0,9.834-9.851,9.854,9.854,0,0,0-9.834,9.851" transform="translate(-267.681 -42.069)" fill="#02a0ac"/>
    <path id="Path_4" data-name="Path 4" d="M373.289,104.953a1.308,1.308,0,0,0,1.307,1.31,5.411,5.411,0,0,0,5.4-5.409,1.307,1.307,0,1,0-2.615,0,2.791,2.791,0,0,1-2.785,2.79,1.309,1.309,0,0,0-1.307,1.31" transform="translate(-307.634 -82.006)" fill="#02a0ac"/>
    <path id="Path_5" data-name="Path 5" d="M149.35,67.426a2.1,2.1,0,1,1-2.1-2.107,2.107,2.107,0,0,1,2.1,2.107m-6.821,0a4.718,4.718,0,1,0,4.718-4.726,4.728,4.728,0,0,0-4.718,4.726" transform="translate(-117.46 -51.654)" fill="#02a0ac"/>
    <path id="Path_6" data-name="Path 6" d="M268.931,4.727a2.1,2.1,0,1,1-2.1-2.107,2.107,2.107,0,0,1,2.1,2.107m-6.821,0A4.718,4.718,0,1,0,266.828,0a4.727,4.727,0,0,0-4.718,4.726" transform="translate(-216.009 -0.001)" fill="#02a0ac"/>
  </g>
</svg>
