<svg xmlns="http://www.w3.org/2000/svg" width="23.895" height="23.876" viewBox="0 0 23.895 23.876">
  <g id="phone" transform="translate(1.018 1.043)">
    <path id="Path_9171" data-name="Path 9171" d="M1831.713,1098.294l-4.281-1.9a2.1,2.1,0,0,0-2.489.6h0l-1.292,1.616a16.966,16.966,0,0,1-5.2-5.2l1.615-1.292a2.1,2.1,0,0,0,.607-2.491l-1.9-4.28a2.1,2.1,0,0,0-2.446-1.181l-3.62.94a2.106,2.106,0,0,0-1.554,2.328,21.8,21.8,0,0,0,18.478,18.478,1.984,1.984,0,0,0,.29.02,2.106,2.106,0,0,0,2.038-1.574l.938-3.62A2.092,2.092,0,0,0,1831.713,1098.294Z" transform="translate(-1811.128 -1084.102)" fill="none" stroke="#0f2961" stroke-width="2"/>
  </g>
</svg>
